<?xml version="1.0" encoding="UTF-8"?>
<svg id="Layer_1" xmlns="http://www.w3.org/2000/svg" version="1.1" viewBox="0 0 27 32">
  <!-- Generator: Adobe Illustrator 29.1.0, SVG Export Plug-In . SVG Version: 2.1.0 Build 142)  -->
  <defs>
    <style>
      .st0 {
        fill: #434447;
        fill-rule: evenodd;
      }
    </style>
  </defs>
  <g id="OPt-2">
    <g id="prog2_pro3_Mobile-Portrait_opt2-Copy-2">
      <g id="nav">
        <g id="Group-6">
          <g id="ic_home">
            <g id="Group">
              <path id="Shape" class="st0" d="M21.7,8.9l-.9.7-1.4,1.1c-.2-1-.8-1.8-1.5-2.3l2.8-2.1-.9-1.1c-.4-.5-.3-1.1.2-1.5l2.1,2.8c.3.4.4.9.3,1.4,0,.4-.3.9-.7,1.2h0v-.2Z"/>
              <path id="Shape1" class="st0" d="M12.9,18.6c3.1-1.6,5.8-2.1,6.5-1,.6.9-.4,2.6-2.3,4.4l1.8,2.9h1.2c.6,0,1,.5,1,1.1h-3.7l-.7-1.1-1-1.7-.4-.7c.1-.2.2-.5.2-.8,0-.9-.7-1.6-1.6-1.6s0,0-.1,0l-1-1.6h.1Z"/>
              <path id="Shape2" class="st0" d="M4.2,8.5c.2-.8.8-1.4,1.7-1.4s.5,0,.7,0c.6.3,1,.9,1,1.6v8.2c0,.6.5,1.1,1,1.1s.8-.3.9-.6h0l1-2.4-1.9-6.5h0v-.2c-.7-2.5.5-5.2,2.9-6.3l4.4,1.6c.5.2.8.8.7,1.3l-1.1-.4c-.4-.2-.9,0-1.1.5-.2.5,0,.9.5,1.1l1.2.4c-.2.5-.8.8-1.3.6l-1.2-.5c0,.5.2,1,.7,1.2l2.3.9c1,.4,1.7,1.4,1.7,2.6h0c0,.2,0,.1,0,.1h3.7v-1.4c0-.4.5-.7.8-.9h.2c0-.1,0,3.4,0,3.4,0,1-.8,1.8-1.8,1.8h-4.1c-.4,0-.7,0-1.1.1h0c-1.8.5-3.2,2.1-3.4,4h0v.4c0,1.1.4,2.1,1,2.9,0,0,0,.1.1.2.1.2.2.4.2.7,0,.6-.5,1.2-1.1,1.2s-.4,0-.6-.2l-2.3-1.4c-.3.2-.5.5-.5.9s0,.5.3.7l1,1.1h1.2c.6,0,1,.5,1,1.1h-3.4c0-1-.8-1.8-1.8-1.8v-3.1c.8-.2,1.4-.9,1.4-1.8s0,0,0-.1h-.3c-.4,0-.8-.1-1.1-.3-.6-.4-1-1.1-1-1.9v-8.2c0-.4-.3-.7-.7-.7s-.7.3-.7.7c.5.3.8.9.8,1.5,0,1-.8,1.8-1.8,1.8v-3.7h-.1Z"/>
            </g>
          </g>
        </g>
      </g>
    </g>
  </g>
</svg>